#!OML:ASF \\sashay\E\Suitcase\Project 1\Capture day 1\Session 1\Male1.ASF
:FULLY-SPECIFIED
:DEGREES
561
root 0.286702 17.2349 -7.4308 10.0168 -2.82582 -7.25502
lowerback 8.09475 1.75397 4.56921
upperback -0.101591 2.94461 3.77602
thorax -4.6229 1.39222 1.01388
lowerneck -23.132 1.40807 -0.171064
upperneck 8.51317 2.55577 -4.28311
head 6.35312 0.837791 -1.06906
rclavicle 2.68359e-015 -1.23246e-014
rhumerus -60.7082 -41.0213 -32.992
rradius 10.122
rwrist 19.1812
rhand -13.2252 5.33163
rfingers 7.12502
rthumb 12.8761 -24.2512
lclavicle 2.68359e-015 -1.23246e-014
lhumerus -52.6178 16.3007 68.3715
lradius 24.722
lwrist -8.41788
lhand -0.470307 42.6694
lfingers 7.12502
lthumb 25.1398 71.0341
rfemur 14.3201 -2.5769 31.8272
rtibia -1.59028e-014
rfoot -9.99878 -6.272
rtoes -1.56006
lfemur -39.4952 -1.92007 -13.6462
ltibia 25.1883
lfoot -13.9072 5.13182
ltoes 4.1928
562
root 0.296295 17.1798 -7.26222 9.59845 -3.05784 -7.32759
lowerback 8.28634 1.86757 4.49505
upperback 0.101667 3.0928 3.84027
thorax -4.52351 1.47077 1.10111
lowerneck -22.696 1.20204 -0.41326
upperneck 8.22445 2.31488 -4.15367
head 6.18179 0.735523 -1.01722
rclavicle -2.127e-014 -2.98177e-014
rhumerus -61.1493 -41.0524 -32.3678
rradius 10.2469
rwrist 19.4915
rhand -12.8354 5.82383
rfingers 7.12502
rthumb 13.2518 -23.7349
lclavicle -2.127e-014 -2.98177e-014
lhumerus -52.5736 16.0275 68.9529
lradius 24.5737
lwrist -8.4418
lhand 0.650933 42.9191
lfingers 7.12502
lthumb 26.2137 71.1288
rfemur 15.4449 -2.79155 31.6423
rtibia 1.90833e-014
rfoot -9.41775 -5.94429
rtoes -3.91313
lfemur -39.0074 -1.48388 -14.2048
ltibia 25.5441
lfoot -12.7264 6.62254
ltoes -0.137296
563
root 0.309716 17.1956 -7.07659 9.51073 -3.60042 -7.20506
lowerback 8.28973 1.92351 4.13149
upperback 0.177757 3.12832 3.84417
thorax -4.46454 1.49786 1.30431
lowerneck -23.4291 1.40395 -0.737805
upperneck 8.86418 2.65482 -3.7055
head 6.49798 0.907543 -0.777645
rclavicle -3.22031e-014 -3.18055e-014
rhumerus -61.0721 -41.1952 -31.9402
rradius 9.74495
rwrist 20.0591
rhand -13.2921 5.35045
rfingers 7.12502
rthumb 12.8116 -24.2364
lclavicle -3.22031e-014 -3.18055e-014
lhumerus -52.8689 17.1107 68.4211
lradius 24.0952
lwrist -9.56532
lhand 1.13875 43.6085
lfingers 7.12502
lthumb 26.6806 71.748
rfemur 16.0547 -2.66259 31.1777
rtibia 1.90833e-014
rfoot -8.23822 -5.5724
rtoes -6.44247
lfemur -38.2565 -1.81126 -14.3687
ltibia 26.2874
lfoot -13.2689 6.20551
ltoes 5.14408
564
root 0.320608 17.1734 -6.8904 9.39024 -3.99693 -7.08929
lowerback 8.30383 1.9923 3.96109
upperback 0.0189843 3.20663 3.68183
thorax -4.63758 1.53518 1.21793
lowerneck -22.5881 1.59163 0.0999889
upperneck 8.57465 2.69099 -4.10753
head 6.29141 0.934571 -1.04009
rclavicle 1.90833e-014 -1.55052e-014
rhumerus -62.2672 -40.8895 -30.9733
rradius 9.93997
rwrist 20.7249
rhand -13.2674 5.74859
rfingers 7.12502
rthumb 12.8355 -23.8368
lclavicle 1.90833e-014 -1.55052e-014
lhumerus -53.5535 16.6703 68.4216
lradius 24.1136
lwrist -9.50792
lhand 1.67631 42.9492
lfingers 7.12502
lthumb 27.195 71.0092
rfemur 16.8879 -2.6601 30.6775
rtibia -3.81667e-014
rfoot -7.43763 -5.03734
rtoes -6.25248
lfemur -37.6718 -1.8627 -14.6786
ltibia 26.7492
lfoot -13.5127 5.61615
ltoes 7.11551
565
root 0.335541 17.1713 -6.70553 9.27149 -4.47969 -7.0257
lowerback 8.24724 2.11515 3.79913
upperback 0.0564484 3.3451 3.60758
thorax -4.5702 1.60772 1.21708
lowerneck -23.1682 1.65761 0.208727
upperneck 9.19428 2.80121 -4.26103
head 6.59106 0.959256 -1.09264
rclavicle 1.11319e-014 2.78299e-015
rhumerus -62.995 -40.9003 -30.0793
rradius 10.0253
rwrist 21.6849
rhand -13.1752 5.62243
rfingers 7.12502
rthumb 12.9243 -23.9573
lclavicle 1.11319e-014 2.78299e-015
lhumerus -53.6484 16.183 68.9276
lradius 24.3203
lwrist -9.21895
lhand 2.64375 42.6105
lfingers 7.12502
lthumb 28.1201 70.5222
rfemur 17.6407 -2.57004 30.2642
rtibia -3.49861e-014
rfoot -6.11005 -4.66749
rtoes -8.94986
lfemur -37.2642 -2.31819 -14.7586
ltibia 27.5545
lfoot -12.1855 6.5811
ltoes 3.798
566
root 0.363922 17.1832 -6.50261 9.12188 -4.81205 -6.69901
lowerback 8.00353 2.17784 3.59014
upperback 0.0776605 3.38478 3.44016
thorax -4.41194 1.63284 1.16458
lowerneck -22.1496 1.33123 -0.697847
upperneck 8.67327 2.46657 -3.37643
head 6.22856 0.866073 -0.702877
rclavicle 2.94201e-014 6.75868e-015
rhumerus -63.2613 -40.869 -29.6871
rradius 9.80965
rwrist 22.036
rhand -13.3498 4.82535
rfingers 7.12502
rthumb 12.756 -24.765
lclavicle 2.94201e-014 6.75868e-015
lhumerus -53.783 16.8831 68.4278
lradius 23.9166
lwrist -10.1952
lhand 3.18473 42.3808
lfingers 7.12502
lthumb 28.6371 70.2064
rfemur 16.3336 -2.69714 29.4371
rtibia 4.0567
rfoot -6.45703 -3.87986
rtoes -7.56125
lfemur -36.4736 -2.83556 -15.212
ltibia 27.9165
lfoot -12.1589 3.779
ltoes 8.38474
567
root 0.378559 17.1956 -6.31286 9.21218 -5.24613 -6.64443
lowerback 7.67725 2.30832 3.32495
upperback 0.110225 3.51302 3.42315
thorax -4.20868 1.70517 1.29407
lowerneck -22.9857 1.39717 -0.0783288
upperneck 9.85051 2.48955 -3.77953
head 6.75862 0.834244 -0.927312
rclavicle 2.34566e-014 1.39149e-014
rhumerus -63.3849 -41.0448 -29.4013
rradius 9.57403
rwrist 22.3342
rhand -13.8002 4.77923
rfingers 7.12502
rthumb 12.3218 -24.8377
lclavicle 2.34566e-014 1.39149e-014
lhumerus -53.7446 16.4086 69.1093
lradius 24.1812
lwrist -9.81113
lhand 4.38323 42.6605
lfingers 7.12502
lthumb 29.7815 70.2871
rfemur 13.9722 -2.70013 28.9754
rtibia 9.51519
rfoot -7.11085 -2.85878
rtoes -7.3283
lfemur -36.1335 -3.66229 -14.9853
ltibia 28.2778
lfoot -11.0125 3.11937
ltoes 12.6327
